<?xml version="1.0" ?><!DOCTYPE svg  PUBLIC '-//W3C//DTD SVG 1.1//EN'  'http://www.w3.org/Graphics/SVG/1.1/DTD/svg11.dtd'><svg enable-background="new 0 0 128 128" height="128px" id="Layer_1" version="1.1" viewBox="0 0 128 128" width="128px" xml:space="preserve" xmlns="http://www.w3.org/2000/svg" xmlns:xlink="http://www.w3.org/1999/xlink"><path d="M64,15.7c27.2,0,49.3,22.1,49.3,49.3S91.2,114.3,64,114.3S14.7,92.2,14.7,65S36.8,15.7,64,15.7 M64,11.7  c-29.5,0-53.3,23.9-53.3,53.3s23.9,53.3,53.3,53.3c29.5,0,53.3-23.9,53.3-53.3S93.5,11.7,64,11.7L64,11.7z" fill="#3B97D3"/><path d="M91.7,66h19.6c0-0.3,0-0.7,0-1s0-0.7,0-1H91.7c-0.1-8-1.3-15.7-3.4-23c4.5-1.3,8.9-3.1,13.1-5.1  c-0.4-0.5-0.9-1.1-1.3-1.6c-4,1.9-8.1,3.5-12.3,4.8c-2.1-6.7-5.1-13.1-8.8-19c-1-0.3-1.9-0.6-2.9-0.9c4.1,6.3,7.5,13.1,9.8,20.4  c-6.6,1.8-13.6,2.8-20.7,2.9V17.7c-0.3,0-0.7,0-1,0s-0.7,0-1,0v24.8c-7.1-0.1-14-1.1-20.6-2.8c2.3-7.3,5.7-14.2,9.8-20.6  c-1,0.3-2,0.5-2.9,0.9c-3.7,5.9-6.7,12.4-8.8,19.1c-4.3-1.3-8.5-2.9-12.5-4.8c-0.4,0.5-0.9,1.1-1.3,1.6c4.2,2.1,8.7,3.8,13.2,5.1  c-2.1,7.3-3.3,15-3.4,22.9H16.7c0,0.3,0,0.7,0,1s0,0.7,0,1h19.8c0.1,8.5,1.4,16.7,3.9,24.5c-4.4,1.3-8.6,2.9-12.7,4.8  c0.4,0.5,0.9,1.1,1.4,1.6c3.9-1.8,7.9-3.3,12-4.5c2.1,6.2,4.9,12.1,8.3,17.6c1,0.3,1.9,0.6,2.9,0.9c-3.9-5.9-7-12.3-9.3-19  c6.4-1.7,13.1-2.6,20-2.7v23.1c0.3,0,0.7,0,1,0s0.7,0,1,0V89.2c7,0.1,13.7,1,20.2,2.7c-2.3,6.7-5.4,13.1-9.3,18.9  c1-0.3,2-0.6,2.9-0.9c3.4-5.5,6.2-11.3,8.3-17.5c4.1,1.2,8,2.7,11.8,4.4c0.5-0.5,0.9-1,1.4-1.6c-4-1.9-8.2-3.5-12.6-4.8  C90.2,82.8,91.6,74.5,91.7,66z M63,87.2c-7.1,0.1-14.1,1-20.7,2.8c-2.4-7.6-3.7-15.6-3.8-23.9H63V87.2z M63,64H38.5  c0.1-7.8,1.3-15.3,3.3-22.4c6.8,1.8,13.8,2.8,21.1,2.9V64z M65,44.5c7.4-0.1,14.5-1.1,21.3-2.9c2.1,7.1,3.3,14.7,3.3,22.4H65V44.5z   M85.9,90c-6.7-1.8-13.7-2.7-20.9-2.8V66h25C89.9,74.3,88.2,82.4,85.9,90z" fill="#2C3E50"/></svg>